<svg width="36" height="36" viewBox="0 0 36 36" fill="none" xmlns="http://www.w3.org/2000/svg">
<path d="M16.5435 3.81003C16.9891 3.56259 17.4903 3.43274 18 3.43274C18.5097 3.43274 19.0109 3.56259 19.4565 3.81003L30.729 10.071C30.9627 10.201 31.1574 10.3911 31.293 10.6216C31.4285 10.8521 31.5 11.1146 31.5 11.382V23.7345C31.4999 24.2695 31.3567 24.7947 31.0853 25.2557C30.8139 25.7167 30.4242 26.0968 29.9565 26.3565L19.4565 32.1915C19.0109 32.439 18.5097 32.5688 18 32.5688C17.4903 32.5688 16.9891 32.439 16.5435 32.1915L6.0435 26.3565C5.57603 26.0969 5.18645 25.7171 4.91507 25.2564C4.6437 24.7956 4.50039 24.2707 4.5 23.736V11.382C4.49999 11.1146 4.57146 10.8521 4.70702 10.6216C4.84258 10.3911 5.0373 10.201 5.271 10.071L16.545 3.81003H16.5435Z" stroke="#5E3BEE" stroke-width="2" stroke-linecap="round" stroke-linejoin="round"/>
<path d="M18 18V32.25M4.5 10.5L18 18L4.5 10.5ZM18 18L31.5 10.5L18 18Z" stroke="#5E3BEE" stroke-width="2" stroke-linecap="round" stroke-linejoin="round"/>
<path d="M11.25 14.25L24.75 6.75" stroke="#5E3BEE" stroke-width="2" stroke-linecap="round" stroke-linejoin="round"/>
<path d="M9 18.4919L13.5 20.9999" stroke="#5E3BEE" stroke-width="2" stroke-linecap="round" stroke-linejoin="round"/>
</svg>
