<svg width="32" height="31" viewBox="0 0 32 31" fill="none" xmlns="http://www.w3.org/2000/svg">
<path d="M14.125 2.50004C14.6571 2.07403 15.3184 1.84192 16 1.84192C16.6816 1.84192 17.3429 2.07403 17.875 2.50004L29.32 11.6545C29.8102 12.0466 30.165 12.5826 30.3345 13.187C30.5041 13.7914 30.4797 14.4337 30.265 15.0235L25.7185 27.5245C25.5081 28.1035 25.1246 28.6037 24.6201 28.9571C24.1156 29.3106 23.5145 29.5001 22.8985 29.5H9.1015C8.48549 29.5001 7.8844 29.3106 7.37988 28.9571C6.87535 28.6037 6.49186 28.1035 6.2815 27.5245L1.7365 15.0235C1.52176 14.4337 1.49744 13.7914 1.66696 13.187C1.83649 12.5826 2.19132 12.0466 2.6815 11.6545L14.125 2.50004Z" stroke="#5E3BEE" stroke-width="2" stroke-linecap="round" stroke-linejoin="round"/>
</svg>
